<svg version="1.1" xmlns="http://www.w3.org/2000/svg" viewBox="0 0 240.88170956708402 90.5881487818655" width="240.88170956708402" height="90.5881487818655">
  <!-- svg-source:excalidraw -->
  <g stroke-linecap="round">
    <g transform="translate(230.88170956708402 10) rotate(0 -62.580863870077266 19.613312778025872)">
      <path d="M0 0 C-3.66 1, -16.23 4.31, -21.96 5.97 C-27.7 7.64, -24.07 6.3, -34.41 9.99 C-44.74 13.68, -73.18 24.31, -83.96 28.13 C-94.75 31.95, -92.25 31.05, -99.11 32.9 C-105.98 34.75, -120.82 38.17, -125.16 39.23 M0 0 C-3.66 1, -16.23 4.31, -21.96 5.97 C-27.7 7.64, -24.07 6.3, -34.41 9.99 C-44.74 13.68, -73.18 24.31, -83.96 28.13 C-94.75 31.95, -92.25 31.05, -99.11 32.9 C-105.98 34.75, -120.82 38.17, -125.16 39.23" stroke="#ffffff" stroke-width="1" fill="none"></path>
    </g>
  </g>
  <mask></mask>
  <g stroke-linecap="round">
    <g transform="translate(92.03294405494893 77.19336962479954) rotate(0 -3.90456154205895 1.6733827884882686)">
      <path d="M0 0 C-1.3 0.56, -6.51 2.79, -7.81 3.35 M0 0 C-1.3 0.56, -6.51 2.79, -7.81 3.35" stroke="#ffffff" stroke-width="1" fill="none"></path>
    </g>
  </g>
  <mask></mask>
  <g stroke-linecap="round">
    <g transform="translate(33.72484817750939 69.75611562416225) rotate(0 -11.862424088754693 4.834216377103985)">
      <path d="M0 0 C-3.95 1.61, -19.77 8.06, -23.72 9.67 M0 0 C-3.95 1.61, -19.77 8.06, -23.72 9.67" stroke="#ffffff" stroke-width="1" fill="none"></path>
    </g>
  </g>
  <mask></mask>
  <g stroke-linecap="round">
    <g transform="translate(58.534784925004004 71.67248043800092) rotate(0 -6.519455945173419 4.457834171932291)">
      <path d="M0 0 C-0.27 0.61, 0.53 2.19, -1.65 3.67 C-3.82 5.16, -11.14 8.04, -13.04 8.92 M0 0 C-0.27 0.61, 0.53 2.19, -1.65 3.67 C-3.82 5.16, -11.14 8.04, -13.04 8.92" stroke="#ffffff" stroke-width="1" fill="none"></path>
    </g>
  </g>
  <mask></mask>
  <g stroke-linecap="round">
    <g transform="translate(75.35779919059726 50.985054300228086) rotate(0 -5.786369378633694 2.3761517529317047)">
      <path d="M0 0 C-1.93 0.79, -9.64 3.96, -11.57 4.75 M0 0 C-1.93 0.79, -9.64 3.96, -11.57 4.75" stroke="#ffffff" stroke-width="1" fill="none"></path>
    </g>
  </g>
  <mask></mask>
  <g stroke-linecap="round">
    <g transform="translate(63.69705514856574 55.78135893775695) rotate(0 -11.08870818034795 -2.134136464471979)">
      <path d="M0 0 C-3.7 -0.71, -18.48 -3.56, -22.18 -4.27 M0 0 C-3.7 -0.71, -18.48 -3.56, -22.18 -4.27" stroke="#ffffff" stroke-width="1" fill="none"></path>
    </g>
  </g>
  <mask></mask>
  <g stroke-linecap="round">
    <g transform="translate(41.651645204299484 51.425080724048826) rotate(0 -10.758552781796666 7.568690649844015)">
      <path d="M0 0 C-3.59 2.52, -17.93 12.61, -21.52 15.14 M0 0 C-3.59 2.52, -17.93 12.61, -21.52 15.14" stroke="#ffffff" stroke-width="1" fill="none"></path>
    </g>
  </g>
  <mask></mask>
  <g stroke-linecap="round">
    <g transform="translate(33.85993199078641 69.7253576983062) rotate(0 12.312279285826804 0.9563685684958614)">
      <path d="M0 0 C4.1 0.32, 20.52 1.59, 24.62 1.91 M0 0 C4.1 0.32, 20.52 1.59, 24.62 1.91" stroke="#ffffff" stroke-width="1" fill="none"></path>
    </g>
  </g>
  <mask></mask>
  <g stroke-linecap="round">
    <g transform="translate(106.41523443705529 49.056977581910814) rotate(0 -15.507311498655653 1.316866561856159)">
      <path d="M0 0 C-1.48 0.32, -5.7 1.51, -8.87 1.95 C-12.05 2.39, -15.34 2.64, -19.03 2.63 C-22.72 2.63, -29.02 2.06, -31.01 1.94 M0 0 C-1.48 0.32, -5.7 1.51, -8.87 1.95 C-12.05 2.39, -15.34 2.64, -19.03 2.63 C-22.72 2.63, -29.02 2.06, -31.01 1.94" stroke="#ffffff" stroke-width="1" fill="none"></path>
    </g>
  </g>
  <mask></mask>
  <g stroke-linecap="round">
    <g transform="translate(92.00959344395623 77.24244981495443) rotate(0 2.844491415473989 1.375699429826227)">
      <path d="M0 0 C0.95 0.46, 4.74 2.29, 5.69 2.75 M0 0 C0.95 0.46, 4.74 2.29, 5.69 2.75" stroke="#ffffff" stroke-width="1" fill="none"></path>
    </g>
  </g>
  <mask></mask>
  <g stroke-linecap="round">
    <g stroke-opacity="0.3" fill-opacity="0.3" transform="translate(230.8723835147195 10.083391641827092) rotate(0 -66.54558604314087 34.97814071587982)">
      <path d="M0 0 C-18.7 8.86, -90.01 41.51, -112.19 53.17 C-134.37 64.82, -129.61 67.16, -133.09 69.96 M0 0 C-18.7 8.86, -90.01 41.51, -112.19 53.17 C-134.37 64.82, -129.61 67.16, -133.09 69.96" stroke="#ffffff" stroke-width="1" fill="none"></path>
    </g>
  </g>
  <mask></mask>
  <g stroke-linecap="round">
    <g stroke-opacity="0.3" fill-opacity="0.3" transform="translate(21.931184264165267 65.26802566990469) rotate(0 -5.964728049635099 7.073138045472916)">
      <path d="M0 0 C-1.71 1.32, -8.27 5.54, -10.26 7.89 C-12.25 10.25, -11.65 13.1, -11.93 14.15 M0 0 C-1.71 1.32, -8.27 5.54, -10.26 7.89 C-12.25 10.25, -11.65 13.1, -11.93 14.15" stroke="#ffffff" stroke-width="1" fill="none"></path>
    </g>
  </g>
  <mask></mask>
</svg>
